cl__1 = 1;
Point(1) = {0, 0, 0, 1};
Point(2) = {0, 1, 1, 1};
Point(3) = {1, 1, 1, 1};
Point(4) = {1, 0, 1, 1};
Point(5) = {0, 0, 1, 1};
Point(6) = {0, 1, 0, 1};
Point(7) = {1, 0, 0, 1};
Point(8) = {1, 1, 0, 1};
Line(1) = {7, 1};
Line(2) = {1, 5};
Line(3) = {5, 4};
Line(4) = {4, 7};
Line(5) = {5, 2};
Line(6) = {2, 6};
Line(7) = {6, 1};
Line(8) = {8, 6};
Line(9) = {8, 7};
Line(10) = {8, 3};
Line(11) = {3, 2};
Line(12) = {3, 4};
Line Loop(14) = {4, 1, 2, 3};
Plane Surface(14) = {14};
Line Loop(16) = {2, 5, 6, 7};
Plane Surface(16) = {16};
Line Loop(18) = {10, 11, 6, -8};
Plane Surface(18) = {18};
Line Loop(20) = {12, -3, 5, -11};
Plane Surface(20) = {20};
Line Loop(22) = {12, 4, -9, 10};
Plane Surface(22) = {22};
Line Loop(24) = {1, -7, -8, 9};
Plane Surface(24) = {24};
Surface Loop(26) = {14, 16, 18, 20, 22, 24};
Volume(26) = {26};
Physical Surface(101) = {14, 16, 18, 20, 22, 24};
cl__1 = 1;
Physical Volume(cl__1) = {26};
Transfinite Line {7, 6, 5, 2, 1, 9, 8, 4, 3, 10, 11, 12} = 2 Using Progression 1;
Transfinite Surface {16};
Transfinite Surface {24};
Transfinite Surface {22};
Transfinite Surface {20};
Transfinite Surface {18};
Transfinite Surface {14};
